{"title":"18+ Welcome The Stranger 2018 UNCENSORED 720p HDRip x264 5.1 +Sa","magnet":"magnet:?xt=urn:btih:6fa9748e9d4bc1183e4e665ca35f90691460480d&dn=18%2B+Welcome+The+Stranger+2018+UNCENSORED+720p+HDRip+x264+5.1+%2BSa&tr=udp%3A%2F%2Ftracker.leechers-paradise.org%3A6969&tr=udp%3A%2F%2Fzer0day.ch%3A1337&tr=udp%3A%2F%2Fopen.demonii.com%3A1337&tr=udp%3A%2F%2Ftracker.coppersurfer.tk%3A6969&tr=udp%3A%2F%2Fexodus.desync.com%3A6969","uploader":"basicssom","categoryP":"video","categoryS":"hd___movies","size":"944406649","seeders":"0","leechers":"17","description":"----------------------------------------------------------------\r\n18+ Welcome The Stranger 2018 UNCENSORED Movies 720p HDRip x264 5.1 with Sample &#x263B;rDX&#x263B;\r\n\r\nSCREEN SHOTS &amp; POSTER:\r\n   <a href=\"\nhttp://postimage.co.nr/2018/3/iphone/software/index.html\" rel=\"nofollow\" target=\"_NEW\">\nhttp://postimage.co.nr/2018/3/iphone/software/index.html</a> <a href=\"\nhttp://postimage.co.nr/2018/3/iphone/software/1.html\" rel=\"nofollow\" target=\"_NEW\">\nhttp://postimage.co.nr/2018/3/iphone/software/1.html</a> <a href=\"\nhttp://postimage.co.nr/2018/3/iphone/software/2.html\" rel=\"nofollow\" target=\"_NEW\">\nhttp://postimage.co.nr/2018/3/iphone/software/2.html</a>   <a href=\"\nhttp://postimage.co.nr/2018/3/iphone/software/3.html\" rel=\"nofollow\" target=\"_NEW\">\nhttp://postimage.co.nr/2018/3/iphone/software/3.html</a>   <a href=\"\nhttp://postimage.co.nr/2018/3/iphone/software/4.html\" rel=\"nofollow\" target=\"_NEW\">\nhttp://postimage.co.nr/2018/3/iphone/software/4.html</a>   <a href=\"\nhttp://postimage.co.nr/2018/3/iphone/software/5.html\" rel=\"nofollow\" target=\"_NEW\">\nhttp://postimage.co.nr/2018/3/iphone/software/5.html</a>   <a href=\"\nhttp://postimage.co.nr/2018/3/iphone/software/6.html\" rel=\"nofollow\" target=\"_NEW\">\nhttp://postimage.co.nr/2018/3/iphone/software/6.html</a>   <a href=\"\nhttp://postimage.co.nr/2018/3/iphone/software/7.html\" rel=\"nofollow\" target=\"_NEW\">\nhttp://postimage.co.nr/2018/3/iphone/software/7.html</a>   <a href=\"\nhttp://postimage.co.nr/2018/3/iphone/software/8.html\" rel=\"nofollow\" target=\"_NEW\">\nhttp://postimage.co.nr/2018/3/iphone/software/8.html</a>   <a href=\"\nhttp://postimage.co.nr/2018/3/iphone/software/9.html\" rel=\"nofollow\" target=\"_NEW\">\nhttp://postimage.co.nr/2018/3/iphone/software/9.html</a>   <a href=\"\nhttp://postimage.co.nr/2018/3/iphone/software/10.html\" rel=\"nofollow\" target=\"_NEW\">\nhttp://postimage.co.nr/2018/3/iphone/software/10.html</a>\r\n\r\nFile size                                : 885 MiB\r\nDuration                                 : 1 h 34 min\r\nOverall bit rate                         : 1 311 kb/s\r\nMovie name                               : 18+ Welcome The Stranger 2018 UNCENSORED Movies 720p HDRip x264 5.1 &#x263B;rDX&#x263B;\r\n\r\nVideo\r\nID                                       : 2\r\nFormat                                   : AVC\r\nFormat/Info                              : Advanced Video Codec\r\nFormat profile                           : <a href=\"/cdn-cgi/l/email-protection\" class=\"__cf_email__\" data-cfemail=\"b5fddcd2ddf5f981\">[email&#xA0;protected]</a>\r\nFormat settings, CABAC                   : Yes\r\nFormat settings, ReFrames                : 4 frames\r\nCodec ID                                 : V_MPEG4/ISO/AVC\r\nDuration                                 : 1 h 34 min\r\nBit rate                                 : 927 kb/s\r\nWidth                                    : 1 280 pixels\r\nHeight                                   : 532 pixels\r\nDisplay aspect ratio                     : 2.40:1\r\nFrame rate mode                          : Constant\r\nFrame rate                               : 23.976 (24000/1001) FPS\r\nColor space                              : YUV\r\nChroma subsampling                       : 4:2:0\r\nBit depth                                : 8 bits\r\nScan type                                : Progressive\r\nBits/(Pixel*Frame)                       : 0.057\r\nStream size                              : 608 MiB (69%)\r\nTitle                                    : &#x263B;rDX&#x263B;\r\nWriting library                          : x264\r\n\r\nAudio\r\nID                                       : 1\r\nFormat                                   : AC-3\r\nFormat/Info                              : Audio Coding 3\r\nMode extension                           : CM (complete main)\r\nFormat settings, Endianness              : Big\r\nCodec ID                                 : A_AC3\r\nDuration                                 : 1 h 34 min\r\nBit rate mode                            : Constant\r\nBit rate                                 : 384 kb/s\r\nChannel(s)                               : 6 channels\r\nChannel positions                        : Front: L C R, Side: L R, LFE\r\nSampling rate                            : 48.0 kHz\r\nFrame rate                               : 31.250 FPS (1536 spf)\r\nBit depth                                : 16 bits\r\nCompression mode                         : Lossy\r\nDelay relative to video                  : -43 ms\r\nStream size                              : 259 MiB (29%)\r\nTitle                                    : &#x263B;rDX&#x263B;\r\nDefault                                  : Yes\r\nForced                                   : No","last_updated":"2018-03-19T12:01:22.293Z","parsed":{"xt":"urn:btih:6fa9748e9d4bc1183e4e665ca35f90691460480d","dn":"18  Welcome The Stranger 2018 UNCENSORED 720p HDRip x264 5.1  Sa","tr":["udp://exodus.desync.com:6969","udp://open.demonii.com:1337","udp://tracker.coppersurfer.tk:6969","udp://tracker.leechers-paradise.org:6969","udp://zer0day.ch:1337"],"infoHash":"6fa9748e9d4bc1183e4e665ca35f90691460480d","infoHashBuffer":{"type":"Buffer","data":[111,169,116,142,157,75,193,24,62,78,102,92,163,95,144,105,20,96,72,13]},"name":"18  Welcome The Stranger 2018 UNCENSORED 720p HDRip x264 5.1  Sa","announce":["udp://exodus.desync.com:6969","udp://open.demonii.com:1337","udp://tracker.coppersurfer.tk:6969","udp://tracker.leechers-paradise.org:6969","udp://zer0day.ch:1337"],"urlList":[]}}